# File created by Blade
# Date/Time:  Wed Jan 21 16:20:01 2015
# Frame Rate: 120.000 fps
#------------------------------------------------------
:FULLY-SPECIFIED
:DEGREES
768
root 11.967291 35.885970 -20.698015 -189.532538 -60.873459 -181.417813
Spine -1.550776 -41.991938 -4.387588
Head 57.008915 -57.859602 -29.360810
LeftShoulder -11.794853 -21.680660 -1.612167
LeftArm -15.822050 35.639548 -68.784917
LeftForeArm 43.697395 0.000000 65.315402
LeftHand -0.818724 0.000000 -28.102677
LeftHandThumb1 -26.253704 0.000000 33.147579
RightShoulder -17.421963 -9.671877 -2.766523
RightArm -28.293694 49.137175 26.629278
RightForeArm -3.816719 -0.000000 12.839712
RightHand -11.272766 -0.000000 -8.164760
RightHandThumb1 -24.326973 -0.000000 -32.862282
LeftUpLeg 24.059022 -24.467832 -14.523787
LeftLeg -13.661454 -0.000000 0.000000
LeftFoot 1.845259 3.283295 -0.903459
LeftToeBase -149.009170 -0.000000 0.000000
RightUpLeg -70.527725 35.291476 16.282287
RightLeg 115.052928 -0.000000 -0.000000
RightFoot 28.466755 -22.103813 -15.774071
RightToeBase 23.531200 -0.000000 -0.000000
769
root 11.968989 35.885469 -20.699824 -189.442179 -60.762680 -181.412445
Spine -1.507025 -41.978981 -4.424617
Head 56.950318 -57.898820 -29.313816
LeftShoulder -11.812755 -21.671072 -1.623815
LeftArm -15.734627 35.563304 -68.779401
LeftForeArm 43.759660 -0.000000 65.202111
LeftHand -0.867922 -0.000000 -27.940987
LeftHandThumb1 -26.253704 0.000000 33.147579
RightShoulder -17.400739 -9.629092 -2.748088
RightArm -28.280426 49.106467 26.628935
RightForeArm -3.797597 0.000000 12.920484
RightHand -11.241233 -0.000000 -8.230944
RightHandThumb1 -24.326973 -0.000000 -32.862282
LeftUpLeg 23.957438 -24.419869 -14.452860
LeftLeg -13.690318 -0.000000 0.000000
LeftFoot 1.845079 3.287019 -0.925713
LeftToeBase -148.876193 -0.000000 0.000000
RightUpLeg -70.465901 35.243483 16.272938
RightLeg 114.929898 -0.000000 -0.000000
RightFoot 28.471584 -22.366955 -15.601475
RightToeBase 23.209038 -0.000000 -0.000000
770
root 11.972752 35.886342 -20.702671 -189.367180 -60.643610 -181.382385
Spine -1.456567 -41.937505 -4.449393
Head 56.737349 -57.958285 -29.066583
LeftShoulder -11.828468 -21.650427 -1.636625
LeftArm -15.597578 35.562891 -68.768553
LeftForeArm 43.737550 -0.000000 65.044396
LeftHand -0.903902 -0.000000 -28.023955
LeftHandThumb1 -26.253704 0.000000 33.147579
RightShoulder -17.447550 -9.635933 -2.683648
RightArm -28.177184 49.197731 26.649292
RightForeArm -3.739062 -0.000000 12.979229
RightHand -11.204192 0.000000 -8.348390
RightHandThumb1 -24.326973 -0.000000 -32.862282
LeftUpLeg 23.852017 -24.371830 -14.361995
LeftLeg -13.730368 -0.000000 0.000000
LeftFoot 1.852110 3.295799 -0.959038
LeftToeBase -148.826704 -0.000000 0.000000
RightUpLeg -70.392503 35.207270 16.267009
RightLeg 114.767480 -0.000000 -0.000000
RightFoot 28.553838 -22.712682 -15.399230
RightToeBase 22.594036 -0.000000 -0.000000
771
root 11.979400 35.888149 -20.702751 -189.305180 -60.517908 -181.336864
Spine -1.375290 -41.867185 -4.492054
Head 56.521611 -57.978710 -28.780792
LeftShoulder -11.824589 -21.667612 -1.673316
LeftArm -15.447666 35.578976 -68.742649
LeftForeArm 43.697689 -0.000000 64.825950
LeftHand -0.883868 -0.000000 -28.000742
LeftHandThumb1 -26.253704 0.000000 33.147579
RightShoulder -17.479984 -9.654507 -2.595378
RightArm -28.157557 49.348601 26.609715
RightForeArm -3.798028 -0.000000 13.063079
RightHand -11.147684 0.000000 -8.338699
RightHandThumb1 -24.326973 -0.000000 -32.862282
LeftUpLeg 23.745772 -24.357259 -14.271084
LeftLeg -13.774205 -0.000000 0.000000
LeftFoot 1.893967 3.304718 -0.987634
LeftToeBase -148.840320 -0.000000 0.000000
RightUpLeg -70.304368 35.154678 16.246508
RightLeg 114.604376 -0.000000 -0.000000
RightFoot 28.395576 -22.906783 -15.430512
RightToeBase 23.361864 -0.000000 -0.000000
